# xmcd
#
# Track frame offsets:
#	150
#	20062
#	39998
#	60347
#	80501
#	100301
#	121294
#	144928
#	166640
#	187972
#	205372
#
# Disc length: 3002 seconds
#
# Revision: 1330288031
# Processed by: cddbd v1.5.2PL0 Copyright (c) Steve Scherf et al.
# Submitted via: EZCDAudioConverter 8.0.2.1
#
DISCID=870bb80b
DTITLE=Hồng Ngọc - Vol 06. Mặt Trái Tình yêu
DYEAR=2008
DGENRE=World Pop
TTITLE0=Hồng Ngọc - Thời gian ơi
TTITLE1=Hồng Ngọc - Vầng trăng cô đơn
TTITLE2=Hồng Ngọc - Chỉ cần anh còn nhớ
TTITLE3=Hồng Ngọc - Cho anh ra đi
TTITLE4=Hồng Ngọc - Mặt Trái Tình yêu
TTITLE5=Hồng Ngọc - Chờ mong anh mãi
TTITLE6=Hồng Ngọc - Bờ môi còn đâu
TTITLE7=Hồng Ngọc - Sài gòn đêm nay
TTITLE8=Hồng Ngọc - Yêu thương trái ngang
TTITLE9=Hồng Ngọc - Người về từ lòng đất
TTITLE10=Hồng Ngọc, Khang Việt - Vầng trăng cô đơn
EXTD=
EXTT0=
EXTT1=
EXTT2=
EXTT3=
EXTT4=
EXTT5=
EXTT6=
EXTT7=
EXTT8=
EXTT9=
EXTT10=
PLAYORDER=
